<svg width="12" height="15" viewBox="0 0 12 15" fill="none" xmlns="http://www.w3.org/2000/svg">
    <path fill-rule="evenodd" clip-rule="evenodd" d="M1.23548 0.694221C1.09404 0.736644 0.883925 0.858639 0.771083 0.963912C0.640511 1.0857 0.507881 1.32459 0.421293 1.59406L0.347179 1.82467V7.48399V13.1433L0.421293 13.3635C0.585434 13.8513 0.847764 14.0946 1.26951 14.15C1.52116 14.1831 1.88984 14.077 2.20698 13.8803C2.39718 13.7623 10.7209 7.97773 10.8467 7.87614C11.0502 7.71171 11.2704 7.42722 11.3707 7.19933C11.4616 6.99259 11.4643 6.9782 11.4643 6.7066C11.4643 6.43501 11.4616 6.42101 11.3707 6.22698C11.2704 6.0131 11.0502 5.75942 10.8467 5.62344C10.7209 5.53944 2.39718 0.918934 2.20698 0.827596C1.89418 0.677315 1.48105 0.620588 1.23548 0.694221Z" fill="white"/>
</svg>