<svg width="10" height="11" viewBox="0 0 10 11" fill="none" xmlns="http://www.w3.org/2000/svg">
    <path fill-rule="evenodd" clip-rule="evenodd" d="M8.64674 0.77731C8.92735 0.793916 9.14052 1.01367 9.21212 1.36015C9.24766 1.53214 9.24813 9.27648 9.2126 9.45724C9.19952 9.5238 9.15713 9.64778 9.11841 9.73275C8.99738 9.99833 8.81296 10.1326 8.54275 10.1519C8.38381 10.1633 8.28881 10.146 8.12642 10.0761C7.94819 9.99946 2.77448 6.72575 2.63368 6.60055C2.49641 6.47846 2.39516 6.3215 2.34214 6.14862C2.31125 6.04792 2.30603 5.99445 2.31356 5.85684C2.3283 5.58788 2.41377 5.39904 2.62373 5.17155C2.69942 5.08954 3.51746 4.44901 5.31779 3.06211C6.73975 1.96672 7.94775 1.03863 8.00225 0.999712C8.21359 0.848839 8.45393 0.765895 8.64674 0.77731ZM1.26887 1.29153C1.42812 1.32127 1.57454 1.43308 1.63967 1.57468C1.66709 1.63431 1.66945 1.98009 1.66945 5.94519V10.2509L1.62738 10.3365C1.56788 10.4575 1.47217 10.5587 1.3651 10.6139C1.28759 10.6538 1.23902 10.6639 1.05689 10.6779C0.854494 10.6934 0.834064 10.6916 0.736792 10.6498C0.619433 10.5992 0.520991 10.4909 0.484868 10.3725C0.467121 10.3143 0.462347 9.3882 0.462347 6.01124V1.72384L0.500038 1.63858C0.555943 1.51211 0.623361 1.43573 0.735315 1.37208C0.820731 1.32353 0.862368 1.31248 1.01825 1.29701C1.11878 1.28703 1.23154 1.28456 1.26887 1.29153Z" fill="white"/>
</svg>