<svg width="10" height="11" viewBox="0 0 10 11" fill="none" xmlns="http://www.w3.org/2000/svg">
    <path fill-rule="evenodd" clip-rule="evenodd" d="M0.997127 1.30809C0.71652 1.36394 0.503349 1.6135 0.431751 1.97C0.396205 2.14696 0.395736 9.89137 0.431265 10.0672C0.444345 10.1319 0.486738 10.2499 0.525455 10.3295C0.64649 10.5781 0.830907 10.6866 1.10112 10.6681C1.26006 10.6573 1.35506 10.6267 1.51744 10.5341C1.69568 10.4325 6.86939 6.43527 7.01019 6.29037C7.14746 6.14909 7.24871 5.97797 7.30173 5.79768C7.33261 5.69266 7.33784 5.63845 7.33031 5.50189C7.31557 5.235 7.2301 5.05811 7.02013 4.85998C6.94445 4.78856 6.12641 4.26244 4.32607 3.12732C2.90412 2.23079 1.69611 1.47165 1.64161 1.44035C1.43028 1.31904 1.18994 1.26971 0.997127 1.30809ZM8.37499 0.790486C8.21575 0.842495 8.06933 0.974782 8.0042 1.12549C7.97678 1.18896 7.97441 1.53507 7.97441 5.50017V9.80593L8.01648 9.88561C8.07599 9.99828 8.1717 10.0861 8.27877 10.1263C8.35627 10.1554 8.40485 10.1587 8.58698 10.1472C8.78937 10.1344 8.8098 10.1298 8.90708 10.0743C9.02443 10.0074 9.12288 9.88523 9.159 9.76176C9.17675 9.70114 9.18152 8.77436 9.18152 5.3974V1.11L9.14383 1.03001C9.08792 0.911358 9.02051 0.844408 8.90855 0.796417C8.82314 0.75981 8.7815 0.754588 8.62562 0.760916C8.52509 0.764989 8.41232 0.778291 8.37499 0.790486Z" fill="white"/>
</svg>